<svg id="レイヤー_1" data-name="レイヤー 1" xmlns="http://www.w3.org/2000/svg" viewBox="0 0 1618.76 192.35"><defs><style>.cls-1,.cls-3,.cls-4,.cls-5,.cls-6{fill:#231815;}.cls-2,.cls-8{fill:none;}.cls-2,.cls-3{stroke:#231815;}.cls-2,.cls-3,.cls-8,.cls-9{stroke-linecap:round;stroke-miterlimit:10;stroke-width:6px;}.cls-10,.cls-4{font-size:17px;}.cls-10,.cls-12,.cls-4,.cls-6{font-family:JosefinSans-Light, Josefin Sans;font-weight:300;}.cls-11,.cls-5{font-size:56px;font-family:JosefinSans-SemiBold, Josefin Sans;font-weight:600;}.cls-12,.cls-6{font-size:24px;}.cls-10,.cls-11,.cls-12,.cls-7,.cls-9{fill:#fff;}.cls-8,.cls-9{stroke:#fff;}</style></defs><path class="cls-1" d="M203.34,417.82a28.62,28.62,0,1,1-28.62,28.62,28.65,28.65,0,0,1,28.62-28.62m0-6A34.62,34.62,0,1,0,238,446.44a34.62,34.62,0,0,0-34.61-34.62Z" transform="translate(-68.69 -293.14)"/><path class="cls-1" d="M278.72,417.82a28.62,28.62,0,1,1-28.61,28.62,28.65,28.65,0,0,1,28.61-28.62m0-6a34.62,34.62,0,1,0,34.62,34.62,34.61,34.61,0,0,0-34.62-34.62Z" transform="translate(-68.69 -293.14)"/><path class="cls-2" d="M161.12,481.5a18,18,0,0,0,12.91-.44A20.91,20.91,0,0,0,183.2,473" transform="translate(-68.69 -293.14)"/><line class="cls-2" x1="184.96" y1="129.62" x2="3" y2="62.12"/><line class="cls-2" x1="159.49" y1="129.62" x2="341.44" y2="62.12"/><ellipse class="cls-3" cx="229.87" cy="153.91" rx="5.07" ry="9.57"/><ellipse class="cls-3" cx="154.41" cy="153.91" rx="5.07" ry="9.57"/><text class="cls-4" transform="translate(126.62 95.23)">for your best</text><text class="cls-5" transform="translate(84.92 72.69)">MORE</text><text class="cls-6" transform="translate(117.25 20.52)">Hair Salon</text><path class="cls-7" d="M1477.65,417.82A28.62,28.62,0,1,1,1449,446.44a28.65,28.65,0,0,1,28.61-28.62m0-6a34.62,34.62,0,1,0,34.62,34.62,34.62,34.62,0,0,0-34.62-34.62Z" transform="translate(-68.69 -293.14)"/><path class="cls-7" d="M1553,417.82a28.62,28.62,0,1,1-28.62,28.62A28.65,28.65,0,0,1,1553,417.82m0-6a34.62,34.62,0,1,0,34.61,34.62A34.62,34.62,0,0,0,1553,411.82Z" transform="translate(-68.69 -293.14)"/><path class="cls-8" d="M1435.44,481.5a18,18,0,0,0,12.91-.44,21,21,0,0,0,9.17-8.05" transform="translate(-68.69 -293.14)"/><line class="cls-8" x1="1459.27" y1="129.62" x2="1277.32" y2="62.12"/><line class="cls-8" x1="1433.8" y1="129.62" x2="1615.76" y2="62.12"/><ellipse class="cls-9" cx="1504.18" cy="153.91" rx="5.07" ry="9.57"/><ellipse class="cls-9" cx="1428.73" cy="153.91" rx="5.07" ry="9.57"/><text class="cls-10" transform="translate(1400.94 95.23)">for your best</text><text class="cls-11" transform="translate(1359.23 72.69)">MORE</text><text class="cls-12" transform="translate(1391.57 20.52)">Hair Salon</text></svg>